<svg xmlns="http://www.w3.org/2000/svg"  viewBox="0 0 50 50" width="30px" height="30px"><path d="M 24.810547 1.9980469 C 18.151549 2.0384002 11.237505 4.9719052 6.5371094 11.291016 C -0.9590735 21.367047 1.0489438 35.588907 11.082031 43.308594 C 20.07679 50.231261 31.73277 48.82409 38.298828 43.544922 C 38.313617 43.561759 38.328963 43.578869 38.34375 43.595703 L 39.845703 42.275391 C 38.386881 40.61454 36.928801 38.95223 35.431641 37.248047 L 34.755859 36.480469 L 34.003906 37.171875 C 32.396656 38.648835 30.867176 40.012933 29.378906 41.445312 C 26.851022 38.559613 24.280861 35.722529 21.738281 32.871094 L 21.736328 32.871094 C 21.697878 32.828044 21.643188 32.748243 21.603516 32.699219 C 22.179948 32.159554 22.749859 31.626769 23.316406 31.097656 L 24.029297 30.433594 L 23.382812 29.703125 C 21.470748 27.544429 19.625358 25.462393 17.773438 23.371094 C 18.364722 22.816646 18.950156 22.266324 19.507812 21.744141 L 20.222656 21.074219 L 19.568359 20.345703 C 17.641453 18.201214 15.77034 16.120451 13.863281 13.998047 C 16.787292 11.356217 19.642632 8.7729391 22.517578 6.1757812 C 23.375559 7.1034947 24.202954 7.9986213 25.048828 8.9140625 L 25.714844 9.6328125 L 26.447266 8.9824219 C 27.972977 7.6275913 29.467066 6.3016957 31.009766 4.9316406 C 31.055083 4.9457428 31.09934 4.9621782 31.144531 4.9765625 L 34.171875 8.2949219 L 37.003906 5.703125 C 37.003906 5.703125 36.252672 5.0075625 35.513672 4.6015625 C 35.407577 4.5431312 35.309255 4.5222132 35.214844 4.5195312 C 32.102478 2.8505883 28.498666 1.975697 24.810547 1.9980469 z M 24.853516 4.0039062 C 26.1426 3.997544 27.416287 4.1183397 28.658203 4.34375 C 27.721729 5.1749861 26.783815 6.0081229 25.851562 6.8359375 C 25.019754 5.9361171 24.211179 5.061372 23.316406 4.09375 L 23.302734 4.078125 C 23.820452 4.037417 24.338387 4.0064488 24.853516 4.0039062 z M 21.630859 4.2832031 C 18.355904 7.2415781 15.125655 10.161962 11.783203 13.181641 L 11.042969 13.849609 L 11.708984 14.591797 C 13.630993 16.730951 15.507389 18.818198 17.425781 20.953125 C 16.872689 21.471565 16.338459 21.973354 15.695312 22.576172 L 14.986328 23.240234 L 15.630859 23.96875 C 17.484092 26.061486 19.340938 28.158316 21.240234 30.302734 C 20.696641 30.811211 20.164783 31.308593 19.574219 31.861328 L 18.910156 32.482422 L 19.464844 33.201172 C 19.696411 33.501756 19.927244 33.846112 20.246094 34.203125 L 20.244141 34.203125 C 22.799744 37.069166 25.374047 39.907731 27.892578 42.783203 C 28.232114 43.171241 28.681275 43.570656 29.335938 43.578125 C 29.991653 43.585625 30.416645 43.223356 30.759766 42.892578 C 31.976086 41.721704 33.275077 40.552735 34.605469 39.337891 C 35.404494 40.247581 36.189686 41.142407 36.978516 42.041016 C 31.178899 46.627533 20.488504 48.026155 12.300781 41.724609 C 3.1038697 34.648296 1.2828078 21.702344 8.140625 12.484375 C 11.694744 7.7062947 16.619183 5.0825761 21.630859 4.2832031 z M 38.666016 7.2480469 L 37.919922 7.9296875 L 36.138672 9.5625 L 37.607422 11.193359 L 38.416016 12.09375 L 40.958984 9.8085938 L 38.666016 7.2480469 z M 30.96875 7.9316406 L 30.222656 8.6113281 L 29.333984 9.4179688 L 27.060547 11.486328 L 28.195312 12.75 L 30.578125 15.396484 L 32.998047 13.210938 L 34.482422 11.869141 L 30.96875 7.9316406 z M 22.271484 9.3710938 L 21.529297 10.042969 L 16.996094 14.150391 L 21.755859 19.445312 L 27.042969 14.671875 L 23.535156 10.771484 L 22.271484 9.3710938 z M 30.822266 10.769531 L 31.667969 11.716797 L 31.65625 11.726562 L 30.722656 12.570312 L 29.876953 11.628906 L 30.679688 10.898438 L 30.822266 10.769531 z M 22.126953 12.199219 L 24.220703 14.525391 L 21.902344 16.617188 L 19.814453 14.294922 L 22.126953 12.199219 z M 42.15625 15.435547 L 41.417969 16.107422 L 40.853516 16.623047 L 39.630859 17.734375 L 41.025391 19.275391 L 41.933594 20.277344 L 43.681641 18.681641 L 44.466797 17.962891 L 43.283203 16.667969 L 42.15625 15.435547 z M 34.751953 16.238281 L 34.007812 16.912109 L 30.847656 19.779297 L 33.636719 22.884766 L 34.371094 23.701172 L 38.283203 20.162109 L 36.935547 18.666016 L 34.751953 16.238281 z M 26.199219 18.761719 L 25.453125 19.4375 L 24.845703 19.986328 L 20.917969 23.552734 L 23.494141 26.412109 L 25.6875 28.845703 L 28.369141 26.410156 L 30.951172 24.0625 L 26.199219 18.761719 z M 34.607422 19.068359 L 35.449219 20.003906 L 35.460938 20.017578 L 34.515625 20.873047 L 33.664062 19.923828 L 34.607422 19.068359 z M 26.050781 21.59375 L 28.136719 23.919922 L 27.023438 24.931641 L 25.830078 26.015625 L 24.980469 25.072266 L 23.738281 23.693359 L 26.050781 21.59375 z M 45.671875 23.617188 L 44.931641 24.283203 L 43.136719 25.898438 L 45.435547 28.441406 L 46.673828 27.330078 L 47.978516 26.154297 L 46.875 24.939453 L 45.671875 23.617188 z M 38.269531 24.966797 L 37.527344 25.638672 L 34.361328 28.498047 L 36.46875 30.849609 L 37.884766 32.429688 L 41.794922 28.878906 L 40.808594 27.785156 L 38.269531 24.966797 z M 38.123047 27.792969 L 38.974609 28.738281 L 38.03125 29.595703 L 37.957031 29.513672 L 37.179688 28.646484 L 38.123047 27.792969 z M 30.097656 28.279297 L 29.353516 28.951172 L 26.386719 31.634766 L 24.822266 33.048828 L 27.253906 35.769531 L 29.570312 38.357422 L 34.863281 33.580078 L 32.884766 31.378906 L 30.097656 28.279297 z M 29.951172 31.107422 L 31.396484 32.714844 L 32.042969 33.431641 L 29.720703 35.527344 L 28.744141 34.435547 L 27.638672 33.199219 L 27.728516 33.119141 L 29.951172 31.107422 z M 41.869141 33.304688 L 41.128906 33.980469 L 37.976562 36.851562 L 39.783203 38.849609 L 41.501953 40.753906 L 42.884766 39.507812 L 45.419922 37.224609 L 41.869141 33.304688 z M 41.734375 36.132812 L 42.591797 37.080078 L 41.648438 37.931641 L 41.267578 37.509766 L 40.794922 36.988281 L 41.734375 36.132812 z"/></svg>